<svg width="16" height="17" viewBox="0 0 16 17" fill="none" xmlns="http://www.w3.org/2000/svg">
<path fill-rule="evenodd" clip-rule="evenodd" d="M3.33398 3.16659C3.15717 3.16659 2.9876 3.23682 2.86258 3.36185C2.73756 3.48687 2.66732 3.65644 2.66732 3.83325V13.1666C2.66732 13.3434 2.73756 13.513 2.86258 13.638C2.9876 13.763 3.15717 13.8333 3.33398 13.8333H12.6673C12.8441 13.8333 13.0137 13.763 13.1387 13.638C13.2637 13.513 13.334 13.3434 13.334 13.1666V9.16658C13.334 8.79839 13.6325 8.49992 14.0007 8.49992C14.3688 8.49992 14.6673 8.79839 14.6673 9.16658V13.1666C14.6673 13.697 14.4566 14.2057 14.0815 14.5808C13.7065 14.9559 13.1978 15.1666 12.6673 15.1666H3.33398C2.80355 15.1666 2.29484 14.9559 1.91977 14.5808C1.5447 14.2057 1.33398 13.697 1.33398 13.1666V3.83325C1.33398 3.30282 1.5447 2.79411 1.91977 2.41904C2.29484 2.04397 2.80355 1.83325 3.33398 1.83325H7.33398C7.70217 1.83325 8.00065 2.13173 8.00065 2.49992C8.00065 2.86811 7.70217 3.16659 7.33398 3.16659H3.33398Z" fill="black"/>
<path fill-rule="evenodd" clip-rule="evenodd" d="M14.4721 2.02851C14.7324 2.28886 14.7324 2.71097 14.4721 2.97132L8.47206 8.97132C8.21171 9.23167 7.7896 9.23167 7.52925 8.97132C7.2689 8.71097 7.2689 8.28886 7.52925 8.02851L13.5292 2.02851C13.7896 1.76816 14.2117 1.76816 14.4721 2.02851Z" fill="black"/>
<path fill-rule="evenodd" clip-rule="evenodd" d="M9.33398 2.49992C9.33398 2.13173 9.63246 1.83325 10.0007 1.83325H14.0007C14.3688 1.83325 14.6673 2.13173 14.6673 2.49992V6.49992C14.6673 6.86811 14.3688 7.16658 14.0007 7.16658C13.6325 7.16658 13.334 6.86811 13.334 6.49992V3.16659H10.0007C9.63246 3.16659 9.33398 2.86811 9.33398 2.49992Z" fill="black"/>
</svg>
