<svg width="44" height="44" viewBox="0 0 44 44" fill="none" xmlns="http://www.w3.org/2000/svg">
<rect width="44" height="44" rx="22" fill="url(#paint0_linear_2024_9284)"/>
<path d="M20.743 28.2858H15.7144C13.9754 28.2858 12.493 27.6729 11.2673 26.4472C10.0416 25.2215 9.42871 23.7391 9.42871 22.0001C9.42871 20.261 10.0416 18.7786 11.2673 17.5529C12.493 16.3272 13.9754 15.7144 15.7144 15.7144H20.743V18.2286H15.7144C14.6668 18.2286 13.7763 18.5953 13.043 19.3286C12.3097 20.062 11.943 20.9525 11.943 22.0001C11.943 23.0477 12.3097 23.9382 13.043 24.6715C13.7763 25.4048 14.6668 25.7715 15.7144 25.7715H20.743V28.2858ZM16.9716 23.2572V20.7429H27.0287V23.2572H16.9716ZM23.2573 28.2858V25.7715H28.2859C29.3335 25.7715 30.2239 25.4048 30.9573 24.6715C31.6906 23.9382 32.0573 23.0477 32.0573 22.0001C32.0573 20.9525 31.6906 20.062 30.9573 19.3286C30.2239 18.5953 29.3335 18.2286 28.2859 18.2286H23.2573V15.7144H28.2859C30.0249 15.7144 31.5073 16.3272 32.733 17.5529C33.9587 18.7786 34.5716 20.261 34.5716 22.0001C34.5716 23.7391 33.9587 25.2215 32.733 26.4472C31.5073 27.6729 30.0249 28.2858 28.2859 28.2858H23.2573Z" fill="white"/>
<defs>
<linearGradient id="paint0_linear_2024_9284" x1="-0.0666697" y1="-0.217029" x2="57.9905" y2="13.5276" gradientUnits="userSpaceOnUse">
<stop stop-color="#43B8FC"/>
<stop offset="1" stop-color="#F24BE1"/>
</linearGradient>
</defs>
</svg>
