<svg width="724" height="132" viewBox="0 0 724 132" fill="none" xmlns="http://www.w3.org/2000/svg">
<path d="M333.768 42.3836H272.544L292.319 0.0371246H235.571L174.238 131.438H230.986L254.64 80.8014H315.865L333.795 42.4107L333.768 42.3836ZM365.683 40.5227L348.959 76.3019H427.772L405.399 131.442H459.62L497.452 40.5227H365.708H365.683ZM179.441 0.0371246H44.433L26.5024 38.428H86.8314L0 131.438H56.7483L95.322 90.1214L114.609 131.438H153.047L120.956 62.6762L179.441 0.0371246ZM547.235 132L579.688 60.5137H536.941L502.933 132H547.235ZM669.231 53.9318L674.593 32.5217H649.5L654.941 20.4593H651.129L657.874 0.356478L612.613 0L604.607 21.073H562.322L549.75 53.9318H592.497L562.024 132H610.098L635.919 53.9318H669.231ZM695.209 0H671.711L658.58 27.6164H682.078L695.209 0ZM723.933 0H700.434L687.303 27.6164H710.801L723.933 0ZM495.151 32.512L508.959 0.442497L401.269 0.441681L387.228 32.5416L495.151 32.512Z" fill="url(#paint0_linear_4149_24013)"/>
<path d="M687.451 60.5137L670.808 132H625.547L645.663 60.5137H687.451Z" fill="url(#paint1_linear_4149_24013)"/>
<defs>
<linearGradient id="paint0_linear_4149_24013" x1="-1.09692" y1="-0.651088" x2="374.493" y2="487.006" gradientUnits="userSpaceOnUse">
<stop stop-color="#43B8FC"/>
<stop offset="0.3125" stop-color="#F24BE1"/>
<stop offset="0.668269" stop-color="#43B8FC"/>
<stop offset="0.846154" stop-color="#F24BE1"/>
</linearGradient>
<linearGradient id="paint1_linear_4149_24013" x1="-1.09692" y1="-0.651088" x2="374.493" y2="487.006" gradientUnits="userSpaceOnUse">
<stop stop-color="#43B8FC"/>
<stop offset="0.3125" stop-color="#F24BE1"/>
<stop offset="0.668269" stop-color="#43B8FC"/>
<stop offset="0.846154" stop-color="#F24BE1"/>
</linearGradient>
</defs>
</svg>
