<svg
  fill="none"
  height="400"
  viewBox="0 0 400 400"
  width="400"
  xmlns="http://www.w3.org/2000/svg"
  xmlns:xlink="http://www.w3.org/1999/xlink"
>
  <clipPath id="a"><path d="m0 0h400v400h-400z" /></clipPath><clipPath
    id="b"
  ><path d="m102 100h196v200h-196z" /></clipPath><g clip-path="url(#a)"><path
      clip-rule="evenodd"
      d="m200 0c-110.4569 0-200 89.5431-200 200 0 110.457 89.5431 200 200 200 110.457 0 200-89.543 200-200 0-110.4569-89.543-200-200-200z"
      fill="#000"
      fill-rule="evenodd"
    /><g clip-path="url(#b)"><path
        d="m218.647 184.643 72.965-84.643h-17.29l-63.356 73.494-50.602-73.494h-58.364l76.52 111.136-76.52 88.761h17.291l66.906-77.612 53.439 77.612h58.364l-79.358-115.254zm-23.683 27.472-7.753-11.066-61.689-88.059h26.558l49.784 71.066 7.753 11.067 64.713 92.375h-26.559l-52.807-75.378z"
        fill="#fff"
      /></g></g>
</svg>
